<svg width="40" height="40" viewBox="0 0 40 40" fill="none" xmlns="http://www.w3.org/2000/svg">
<path d="M20 0C8.97219 0 0 8.97219 0 20C0 31.0278 8.97219 40 20 40C31.0278 40 40 31.0278 40 20C40 8.97219 31.0278 0 20 0ZM20 38.3334C9.89094 38.3334 1.66664 30.1091 1.66664 20C1.66664 9.89094 9.89094 1.66664 20 1.66664C30.1091 1.66664 38.3334 9.89094 38.3334 20C38.3334 30.1091 30.1091 38.3334 20 38.3334Z" fill="#34495E"/>
<path d="M30.8334 19.1666H11.1784L17.2559 13.0891C17.5814 12.7636 17.5814 12.2363 17.2559 11.9108C16.9303 11.5852 16.403 11.5852 16.0775 11.9108L8.5775 19.4108C8.25196 19.7363 8.25196 20.2637 8.5775 20.5891L16.0775 28.0891C16.2402 28.2519 16.4535 28.3333 16.6667 28.3333C16.8799 28.3333 17.0931 28.2519 17.2559 28.0891C17.5815 27.7636 17.5815 27.2363 17.2559 26.9108L11.1784 20.8333H30.8334C31.294 20.8333 31.6667 20.4606 31.6667 19.9999C31.6667 19.5393 31.294 19.1666 30.8334 19.1666Z" fill="#34495E"/>
</svg>
